<svg width="16" height="16" viewBox="0 0 16 16" fill="none" xmlns="http://www.w3.org/2000/svg">
<g clip-path="url(#clip0)">
<path d="M14.3333 14H1.66667C0.748 14 0 13.252 0 12.3333V3.66667C0 2.748 0.748 2 1.66667 2H14.3333C15.252 2 16 2.748 16 3.66667V12.3333C16 13.252 15.252 14 14.3333 14ZM1.66667 2.66667C1.11533 2.66667 0.666667 3.11533 0.666667 3.66667V12.3333C0.666667 12.8847 1.11533 13.3333 1.66667 13.3333H14.3333C14.8847 13.3333 15.3333 12.8847 15.3333 12.3333V3.66667C15.3333 3.11533 14.8847 2.66667 14.3333 2.66667H1.66667Z" fill="#3F3F3F"/>
<path d="M5.00001 8.00001C4.08134 8.00001 3.33334 7.25201 3.33334 6.33334C3.33334 5.41467 4.08134 4.66667 5.00001 4.66667C5.91868 4.66667 6.66668 5.41467 6.66668 6.33334C6.66668 7.25201 5.91868 8.00001 5.00001 8.00001ZM5.00001 5.33334C4.44868 5.33334 4.00001 5.78201 4.00001 6.33334C4.00001 6.88467 4.44868 7.33334 5.00001 7.33334C5.55134 7.33334 6.00001 6.88467 6.00001 6.33334C6.00001 5.78201 5.55134 5.33334 5.00001 5.33334Z" fill="#3F3F3F"/>
<path d="M7.66667 11.3333C7.48267 11.3333 7.33333 11.184 7.33333 11V10.3333C7.33333 9.782 6.88467 9.33334 6.33333 9.33334H3.66667C3.11533 9.33334 2.66667 9.782 2.66667 10.3333V11C2.66667 11.184 2.51733 11.3333 2.33333 11.3333C2.14933 11.3333 2 11.184 2 11V10.3333C2 9.41467 2.748 8.66667 3.66667 8.66667H6.33333C7.252 8.66667 8 9.41467 8 10.3333V11C8 11.184 7.85067 11.3333 7.66667 11.3333Z" fill="#3F3F3F"/>
<path d="M13.6667 5.99999H9.66668C9.48268 5.99999 9.33334 5.85066 9.33334 5.66666C9.33334 5.48266 9.48268 5.33333 9.66668 5.33333H13.6667C13.8507 5.33333 14 5.48266 14 5.66666C14 5.85066 13.8507 5.99999 13.6667 5.99999Z" fill="#3F3F3F"/>
<path d="M13.6667 8.66667H9.66668C9.48268 8.66667 9.33334 8.51733 9.33334 8.33333C9.33334 8.14933 9.48268 8 9.66668 8H13.6667C13.8507 8 14 8.14933 14 8.33333C14 8.51733 13.8507 8.66667 13.6667 8.66667Z" fill="#3F3F3F"/>
<path d="M13.6667 11.3333H9.66668C9.48268 11.3333 9.33334 11.184 9.33334 11C9.33334 10.816 9.48268 10.6667 9.66668 10.6667H13.6667C13.8507 10.6667 14 10.816 14 11C14 11.184 13.8507 11.3333 13.6667 11.3333Z" fill="#3F3F3F"/>
</g>
<defs>
<clipPath id="clip0">
<rect width="16" height="16" fill="white"/>
</clipPath>
</defs>
</svg>
